<?xml version="1.0" standalone="no"?>
<!DOCTYPE svg PUBLIC "-//W3C//DTD SVG 20010904//EN"
 "http://www.w3.org/TR/2001/REC-SVG-20010904/DTD/svg10.dtd">
<svg version="1.0" xmlns="http://www.w3.org/2000/svg"
 width="700.000000pt" height="700.000000pt" viewBox="0 0 700.000000 700.000000"
 preserveAspectRatio="xMidYMid meet">
<metadata>
Created by potrace 1.14, written by Peter Selinger 2001-2017
</metadata>
<g transform="translate(0.000000,700.000000) scale(0.100000,-0.100000)"
fill="#000000" stroke="none">
<path d="M3300 6099 c-104 -9 -283 -37 -390 -62 l-55 -12 -3 -79 c-3 -77 -3
-78 20 -73 290 63 405 77 643 77 292 0 502 -33 771 -121 419 -138 800 -394
1092 -734 234 -273 410 -606 506 -957 l33 -119 74 -45 c41 -24 77 -44 82 -44
14 0 6 52 -32 202 -121 474 -347 873 -685 1211 -335 334 -762 575 -1221 688
-253 62 -592 90 -835 68z"/>
<path d="M2633 5953 l-73 -25 0 -1884 c0 -1036 3 -1884 7 -1884 4 0 37 18 75
40 l68 41 0 1869 c0 1029 -1 1870 -2 1869 -2 0 -36 -12 -75 -26z"/>
<path d="M2366 5839 c-32 -16 -64 -33 -72 -40 -12 -10 -14 -296 -14 -1905 0
-1042 3 -1894 7 -1894 14 0 135 72 139 83 2 7 3 861 2 1898 l-3 1886 -59 -28z"/>
<path d="M2074 5672 l-69 -47 -3 -1893 c-1 -1112 2 -1892 7 -1892 5 0 39 17
75 37 l66 38 0 1903 c0 1046 -1 1902 -3 1902 -2 0 -35 -21 -73 -48z"/>
<path d="M2852 5545 l3 -87 1628 -940 c895 -517 1630 -938 1633 -935 3 3 2 41
-1 86 l-8 80 -1606 927 c-883 510 -1616 934 -1629 942 l-23 15 3 -88z"/>
<path d="M1768 5436 c-231 -206 -439 -479 -583 -767 -187 -371 -275 -747 -275
-1169 0 -658 230 -1255 674 -1753 48 -53 91 -97 97 -97 5 0 39 17 74 37 l64
37 -92 96 c-279 291 -492 677 -592 1075 -56 222 -69 341 -70 605 0 178 4 263
18 350 82 527 308 984 670 1356 l118 122 -3 97 -3 98 -97 -87z"/>
<path d="M2852 5225 l3 -88 1625 -938 1625 -938 9 75 c7 60 6 78 -5 89 -8 7
-734 428 -1614 935 -880 508 -1610 930 -1623 938 l-23 15 3 -88z"/>
<path d="M2850 4898 l0 -83 1599 -922 c879 -508 1602 -923 1608 -923 9 0 39
137 32 145 -8 6 -3230 1865 -3234 1865 -3 0 -5 -37 -5 -82z"/>
<path d="M3415 4243 c-120 -17 -272 -82 -367 -157 -272 -216 -358 -607 -202
-922 139 -281 462 -451 769 -404 295 45 528 245 617 530 33 108 33 312 0 420
-71 226 -236 406 -451 487 -113 43 -257 61 -366 46z m264 -109 c186 -48 342
-178 426 -356 177 -373 -31 -809 -435 -914 -85 -22 -234 -22 -320 1 -227 59
-413 245 -470 471 -97 380 151 752 545 814 62 10 181 3 254 -16z"/>
<path d="M3441 3989 c-96 -12 -200 -66 -274 -141 -100 -101 -147 -213 -147
-348 0 -135 47 -247 147 -348 165 -167 419 -193 620 -63 154 99 244 299 216
479 -6 37 -18 84 -27 106 l-16 38 -34 -30 c-65 -57 -153 -66 -233 -25 -93 48
-131 177 -80 276 l24 47 -21 4 c-51 11 -116 12 -175 5z m-10 -549 c29 -16 51
-67 44 -101 -20 -89 -159 -92 -181 -4 -20 80 64 144 137 105z"/>
<path d="M3400 2484 c-883 -510 -1607 -929 -1610 -931 -5 -5 42 -48 91 -83
l25 -19 1622 937 c892 515 1622 938 1622 941 0 6 -117 74 -135 79 -5 1 -732
-415 -1615 -924z"/>
<path d="M3660 2310 c-894 -517 -1626 -943 -1627 -947 -2 -4 25 -26 58 -47 53
-35 64 -38 88 -29 49 20 3243 1870 3244 1879 0 8 -121 84 -133 83 -3 0 -736
-423 -1630 -939z"/>
<path d="M3933 2147 c-898 -518 -1633 -944 -1633 -947 0 -3 34 -22 75 -43 l75
-37 1622 937 c893 514 1627 939 1631 943 7 6 -121 91 -135 90 -2 -1 -737 -425
-1635 -943z"/>
<path d="M5872 2818 c-111 -396 -360 -805 -666 -1095 -265 -250 -583 -441
-920 -552 -292 -95 -512 -126 -844 -118 -230 5 -365 23 -550 72 -52 14 -99 25
-106 25 -6 0 -47 -21 -90 -46 -90 -53 -91 -52 33 -90 549 -169 1102 -160 1646
26 156 53 431 189 571 283 495 329 852 795 1040 1354 24 73 44 136 44 140 0 7
-121 83 -132 83 -2 0 -13 -37 -26 -82z"/>
</g>
</svg>
