<?xml version="1.0" encoding="utf-8"?>
<!-- Generator: Adobe Adobe Illustrator 24.2.0, SVG Export Plug-In . SVG Version: 6.00 Build 0)  -->
<svg version="1.1" id="Layer_8" xmlns="http://www.w3.org/2000/svg" xmlns:xlink="http://www.w3.org/1999/xlink" x="0px" y="0px"
	 width="250px" height="250px" viewBox="0 0 250 250" style="enable-background:new 0 0 250 250;" xml:space="preserve">
<style type="text/css">
	.st0{fill:none;stroke:#000000;stroke-width:10;stroke-miterlimit:10;}
	.st1{fill:#FFFFFF;stroke:#000000;stroke-miterlimit:10;}
	.st2{fill:#FFFFFF;}
	.st3{fill:#45627F;}
	.st4{fill:none;stroke:#FFFFFF;stroke-width:100;stroke-miterlimit:10;}
	.st5{fill:none;stroke:#000000;stroke-width:3;stroke-miterlimit:10;}
</style>
<g id="Layer_1">
	<circle class="st0" cx="125.48" cy="125" r="92.81"/>
	<polygon class="st1" points="185.9,130.02 99.01,79.85 99.01,180.19 	"/>
</g>
<g id="Layer_5">
	<rect x="66.65" y="-12.9" class="st2" width="35.12" height="204.69"/>
	<rect x="71.66" y="-14.41" class="st3" width="5.02" height="224.76"/>
	<rect x="81.7" y="-14.41" class="st3" width="5.02" height="224.76"/>
	<rect x="91.6" y="-14.41" class="st3" width="5.02" height="224.76"/>
</g>
<g id="Layer_4">
	
		<rect x="100.67" y="75.43" transform="matrix(0.5 0.866 -0.866 0.5 213.0679 -13.4997)" class="st2" width="35.12" height="204.69"/>
	<rect x="103.31" y="60.97" transform="matrix(0.5 0.866 -0.866 0.5 203.0337 -4.971)" class="st3" width="5.02" height="224.76"/>
	<rect x="108.33" y="69.66" transform="matrix(0.5 0.866 -0.866 0.5 213.0674 -4.971)" class="st3" width="5.02" height="224.76"/>
	<rect x="113.28" y="78.24" transform="matrix(0.5 0.866 -0.866 0.5 222.9758 -4.971)" class="st3" width="5.02" height="224.76"/>
</g>
<g id="Layer_3">
	<rect x="154.02" y="1.35" transform="matrix(0.5 -0.866 0.866 0.5 -4.0098 200.4425)" class="st2" width="35.12" height="204.69"/>
	<rect x="171.44" y="4.27" transform="matrix(0.5 -0.866 0.866 0.5 -14.0441 208.9712)" class="st3" width="5.02" height="224.76"/>
	<rect x="176.46" y="-4.42" transform="matrix(0.5 -0.866 0.866 0.5 -4.0103 208.9712)" class="st3" width="5.02" height="224.76"/>
	<rect x="181.41" y="-13" transform="matrix(0.5 -0.866 0.866 0.5 5.8981 208.9712)" class="st3" width="5.02" height="224.76"/>
</g>
<g id="Layer_2">
	<rect x="66.65" y="34.72" class="st2" width="35.12" height="54.83"/>
	<rect x="71.66" y="34.32" class="st3" width="5.02" height="60.2"/>
	<rect x="81.7" y="34.32" class="st3" width="5.02" height="60.2"/>
	<rect x="91.6" y="34.32" class="st3" width="5.02" height="60.2"/>
</g>
<g id="Layer_7">
	<circle class="st4" cx="125.48" cy="125" r="142.98"/>
</g>
<g id="Layer_6">
	<circle class="st5" cx="125.48" cy="125" r="25.08"/>
	<circle cx="125.48" cy="125" r="17.56"/>
	<circle class="st2" cx="120.81" cy="130.02" r="3.51"/>
	<circle class="st2" cx="135.49" cy="112.98" r="7.53"/>
</g>
</svg>
